HIERARCHY
ROOT pelvis
{
  OFFSET 0 100 0
  CHANNELS 6 Xposition Yposition Zposition Zrotation Xrotation Yrotation
  JOINT pelvis_right_femur
  {
    OFFSET -10.78128 -3.44521 -0.5502486
    CHANNELS 3 Zrotation Xrotation Yrotation
    JOINT right_femur_tibia
    {
      OFFSET -0.8047443 -44.0398 -0.1307829
      CHANNELS 3 Zrotation Xrotation Yrotation
      JOINT right_tibia_foot
      {
        OFFSET 3.006224 -47.83518 -5
        CHANNELS 3 Zrotation Xrotation Yrotation
        End Site
        {
          OFFSET 0 -5 15
        }
      }
    }
  }
  JOINT pelvis_left_femur
  {
    OFFSET 10.78128 -3.44521 -0.5502486
    CHANNELS 3 Zrotation Xrotation Yrotation
    JOINT left_femur_tibia
    {
      OFFSET 0.8047443 -44.0398 -0.1307829
      CHANNELS 3 Zrotation Xrotation Yrotation
      JOINT left_tibia_foot
      {
        OFFSET -4.370144 -48.10324 -4.275266
        CHANNELS 3 Zrotation Xrotation Yrotation
        End Site
        {
          OFFSET 0 -5 15
        }
      }
    }
  }
  JOINT pelvis_spine1
  {
    OFFSET 0 6.468898 -3.129235
    CHANNELS 3 Zrotation Xrotation Yrotation
    JOINT spine1
    {
      OFFSET 0 23.15396 4.99043
      CHANNELS 3 Zrotation Xrotation Yrotation
      JOINT spine2
      {
        OFFSET 0 20.79997 -5.064912
        CHANNELS 3 Zrotation Xrotation Yrotation
        JOINT neck
        {
          OFFSET 0 14.38658 9.616178
          CHANNELS 3 Zrotation Xrotation Yrotation
          End Site
          {
            OFFSET 0 20 0
          }
        }
      }
      JOINT right_manubrium
      {
        OFFSET -5.722621 16.35077 3.967754
        CHANNELS 3 Zrotation Xrotation Yrotation
        JOINT right_clavicle
        {
          OFFSET -13.16364 1.694482 -4.693211
          CHANNELS 3 Zrotation Xrotation Yrotation
          JOINT right_humerus
          {
            OFFSET -28.5034 -0.3100689 -2.792744
            CHANNELS 3 Zrotation Xrotation Yrotation
            JOINT right_radius
            {
              OFFSET -25.15693 0.02248979 -1.271978
              CHANNELS 3 Zrotation Xrotation Yrotation
              End Site
              {
                OFFSET -15 0 0
              }
            }
          }
        }
      }
      JOINT left_manubrium
      {
        OFFSET 5.722621 16.35077 3.967754
        CHANNELS 3 Zrotation Xrotation Yrotation
        JOINT left_clavicle
        {
          OFFSET 13.16364 1.694482 -4.693211
          CHANNELS 3 Zrotation Xrotation Yrotation
          JOINT left_humerus
          {
            OFFSET 29.39168 -1.063119 -2.237045
            CHANNELS 3 Zrotation Xrotation Yrotation
            JOINT left_radius
            {
              OFFSET 24.59957 -0.9528479 0.9047498
              CHANNELS 3 Zrotation Xrotation Yrotation
              End Site
              {
                OFFSET 15 -0 -0
              }
            }
          }
        }
      }
    }
  }
}
MOTION
Frames: 13
Frame Time: 0.0416666666667
0 103.5113 0 0.4934725 -0.2665948 0.7628404 2.032339 -23.39796 4.763982 -0 31.73241 -0 -2.837622 -8.579184 -3.679165 -6.175951 12.2071 -18.159 0 -5.164239 0 2.069772 -22.42656 20.84759 -3.372265 -1.481499 3.444187 1.671378 8.139527 -7.473557 1.374622 21.52369 7.812079 3.359453 -22.51772 9.674516 4.798089 -17.88071 10.39607 86.0146 33.85467 -18.49141 -0 0 15.3421 -13.32418 10.83782 7.681854 7.024576 -19.94011 -2.151839 -89.83958 28.83922 16.65379 0 0 -20.43587 3.172823 13.41485 10.79371
0.5624058 102.1526 3.472135 0.6099485 -0.4076527 1.582079 1.706458 -22.49718 4.873297 -0 33.728 -0 -2.415974 -8.452867 -3.718774 -6.328193 11.73414 -18.2947 0 -6.062813 0 1.936801 -22.4871 21.04137 -3.510174 -1.439254 3.489207 1.545849 8.035294 -7.307805 1.407012 21.58483 7.868725 3.354803 -22.3598 9.760048 4.910425 -17.85557 10.33248 85.61437 33.90761 -17.94359 -0 0 15.71396 -13.61325 10.9093 7.914392 6.946424 -19.53331 -2.065782 -90.08268 29.17777 16.9668 0 0 -19.75611 2.67419 13.20567 11.43943
1.035747 100.6955 6.860526 0.2889991 0.1857794 2.243504 2.627517 -25.10187 4.748791 -0 28.2145 -0 -3.449842 -9.226635 -3.603087 -5.924424 12.9602 -18.12305 0 -4.346608 0 2.379627 -22.49272 20.65202 -3.174531 -1.566319 3.393496 1.919788 8.229151 -7.773097 1.311606 21.38023 7.749939 3.375841 -22.8579 9.575142 4.734197 -17.94684 10.50249 86.50071 34.04657 -19.36555 -0 0 14.88525 -12.62709 10.73486 7.236478 7.188759 -20.56311 -2.189325 -89.58183 28.51268 16.30027 0 0 -21.62185 3.887394 13.79357 9.909938
1.457171 99.12572 10.16512 0.08130181 0.5801447 2.819355 3.194503 -26.70344 4.704058 -0 24.82495 -0 -4.093704 -9.767046 -3.517855 -5.678996 13.67933 -18.0674 0 -3.552053 0 2.708737 -22.53362 20.4625 -2.978621 -1.65325 3.340897 2.154756 8.337854 -8.059378 1.249241 21.24795 7.680961 3.390604 -23.18507 9.46628 4.637573 -18.03372 10.60852 87.00947 34.16105 -20.20482 -0 0 14.43185 -11.98874 10.60635 6.823153 7.343601 -21.18728 -2.249905 -89.32538 28.12025 15.96504 0 0 -22.74031 4.644973 14.16499 8.965105
1.816307 97.50666 13.48086 -0.09981814 0.7575355 3.304767 3.73036 -28.03803 4.617489 -0 21.73841 -0 -4.66151 -9.949614 -3.526192 -5.444102 14.39554 -17.78067 0 -1.599508 0 2.749852 -22.3622 20.06388 -2.747928 -1.692483 3.277302 2.340829 8.490217 -8.309304 1.208779 21.16212 7.589933 3.388459 -23.37732 9.333287 4.474674 -17.99792 10.70048 87.65479 34.04557 -21.09241 -0 0 13.78649 -11.59973 10.55304 6.463544 7.446702 -21.79287 -2.375639 -88.91489 27.63016 15.39191 0 0 -23.83701 5.342779 14.37774 8.066182
2.119645 95.88336 16.86182 -0.2360326 0.7860544 3.710742 4.166926 -29.01834 4.523994 -0 19.29582 -0 -5.094412 -9.906266 -3.585537 -5.25428 15.00097 -17.40703 -0 0.7182447 -0 2.61916 -22.09552 19.60761 -2.532882 -1.698067 3.217579 2.471074 8.642487 -8.500484 1.187158 21.1155 7.500877 3.377028 -23.46289 9.207729 4.301467 -17.89578 10.7704 88.2716 33.8185 -21.86686 -0 0 13.1313 -11.40994 10.55409 6.187911 7.503743 -22.29328 -2.517792 -88.48658 27.16188 14.77472 0 0 -24.7554 5.892671 14.46494 7.339921
2.368061 94.30637 20.37908 -0.3304912 0.648028 4.042066 4.541142 -29.68993 4.426305 -0 17.33598 -0 -5.385242 -9.621058 -3.723095 -5.097051 15.53734 -16.88272 -0 3.802706 -0 2.240149 -21.67893 19.02253 -2.311368 -1.658947 3.158478 2.549807 8.803258 -8.642723 1.187352 21.10887 7.406555 3.352834 -23.42501 9.081222 4.110264 -17.68645 10.82067 88.91035 33.45776 -22.59793 -0 0 12.3881 -11.43017 10.63947 5.975226 7.511613 -22.71318 -2.686142 -87.987 26.69804 14.02336 0 0 -25.57926 6.289838 14.40419 6.786821
2.564784 92.82716 24.10171 -0.380208 0.3475949 4.304241 4.849611 -30.02885 4.325379 -0 15.87011 -0 -5.525262 -9.111903 -3.936129 -4.973824 15.97906 -16.21047 -0 7.623393 -0 1.618795 -21.10776 18.32217 -2.085313 -1.574777 3.103565 2.575635 8.969599 -8.732555 1.20954 21.14156 7.307525 3.316133 -23.26337 8.955181 3.905091 -17.3742 10.85173 89.55292 32.97295 -23.26705 -0 0 11.57288 -11.6597 10.81201 5.829684 7.469378 -23.04383 -2.876583 -87.43011 26.24588 13.15668 0 0 -26.2952 6.520722 14.19806 6.423818
2.712818 91.50436 28.10707 -0.3820368 -0.1306123 4.500999 5.098976 -29.98466 4.229344 -0 14.88766 -0 -5.487627 -8.384564 -4.240179 -4.881486 16.28992 -15.3578 -0 12.35148 -0 0.7134721 -20.3407 17.48962 -1.848333 -1.43704 3.058244 2.543858 9.140791 -8.764055 1.256818 21.21593 7.200944 3.264475 -22.96093 8.827964 3.687345 -16.94259 10.86342 90.19551 32.35895 -23.87078 -0 0 10.67515 -12.11998 11.09269 5.756576 7.370627 -23.27438 -3.087599 -86.81004 25.81138 12.15984 0 0 -26.90542 6.554328 13.82547 6.287946
2.816605 90.40416 32.47789 -0.3317647 -0.8034369 4.635041 5.287617 -29.46038 4.14238 -0 14.40273 -0 -5.247806 -7.45329 -4.643942 -4.814371 16.3917 -14.29658 -0 18.08992 -0 -0.4996484 -19.33126 16.5293 -1.596991 -1.238625 3.032631 2.446652 9.316474 -8.725366 1.331853 21.33472 7.082995 3.195398 -22.50139 8.697187 3.45621 -16.3898 10.85619 90.81864 31.61018 -24.37852 -0 0 9.709403 -12.83927 11.49643 5.773041 7.207438 -23.3859 -3.316235 -86.13788 25.39752 11.0501 0 0 -27.38196 6.361526 13.26721 6.414599
2.882589 89.60023 37.29921 -0.2262479 -1.685208 4.707091 5.415256 -28.30607 4.07569 -0 14.41474 -0 -4.776118 -6.366718 -5.153421 -4.75653 16.14726 -12.9978 -0 24.91777 -0 -2.03897 -18.01968 15.46296 -1.328068 -0.9716189 3.045218 2.274293 9.493897 -8.598843 1.437198 21.4992 6.94818 3.105636 -21.86787 8.559504 3.212702 -15.72542 10.83153 91.38391 30.73061 -24.73663 -0 0 8.716609 -13.84902 12.03884 5.905798 6.970333 -23.34904 -3.553223 -85.44183 25.01543 9.877291 0 0 -27.67534 5.905244 12.49998 6.851636
2.920833 89.16584 42.64494 -0.067678 -2.768173 4.714441 5.483325 -26.31814 4.044785 -0 14.86689 -0 -4.061287 -5.243944 -5.75185 -4.670652 15.33388 -11.45503 -0 32.73502 -0 -3.876231 -16.3533 14.35761 -1.04195 -0.6341848 3.126973 2.019179 9.667375 -8.362377 1.572049 21.7045 6.78909 2.992533 -21.05935 8.409655 2.959176 -14.99701 10.79434 91.82005 29.74874 -24.85294 -0 0 7.796538 -15.16317 12.71965 6.191762 6.652911 -23.12805 -3.778684 -84.7888 24.68351 8.768281 0 0 -27.70077 5.161385 11.51604 7.63587
2.946968 89.15311 48.55183 0.1289111 -3.991312 4.647752 5.500827 -23.26761 4.072293 -0 15.57281 -0 -3.139982 -4.327219 -6.373725 -4.483668 13.62962 -9.715834 -0 41.07826 -0 -5.89449 -14.32323 13.34792 -0.7463095 -0.2391578 3.325039 1.6838 9.825344 -7.994902 1.727916 21.93211 6.597464 2.855951 -20.11365 8.240434 2.702683 -14.31795 10.75547 92.00944 28.74344 -24.59114 -0 0 7.141169 -16.74147 13.50466 6.669343 6.259369 -22.68908 -3.954699 -84.30631 24.4346 7.972221 0 0 -27.33729 4.140601 10.35013 8.769449
